<svg xmlns="http://www.w3.org/2000/svg" viewBox="0 0 30 35">
  <style>
    .icon-fill { fill: #1a1a2e; }
    @media (prefers-color-scheme: dark) {
      .icon-fill { fill: #ffffff; }
    }
  </style>
  <path class="icon-fill" d="M16.0671 2.56667V6.83333C16.0671 7.11623 15.9547 7.38754 15.7547 7.58758C15.5547 7.78762 15.2834 7.9 15.0005 7.9C14.7176 7.9 14.4462 7.78762 14.2462 7.58758C14.0462 7.38754 13.9338 7.11623 13.9338 6.83333V2.56667C13.9338 2.28377 14.0462 2.01246 14.2462 1.81242C14.4462 1.61238 14.7176 1.5 15.0005 1.5C15.2834 1.5 15.5547 1.61238 15.7547 1.81242C15.9547 2.01246 16.0671 2.28377 16.0671 2.56667ZM21.4005 7.9C21.1176 7.9 20.8462 8.01238 20.6462 8.21242C20.4462 8.41246 20.3338 8.68377 20.3338 8.96667V13.2333C20.3338 13.5162 20.4462 13.7875 20.6462 13.9876C20.8462 14.1876 21.1176 14.3 21.4005 14.3C21.6834 14.3 21.9547 14.1876 22.1547 13.9876C22.3547 13.7875 22.4671 13.5162 22.4671 13.2333V8.96667C22.4671 8.68377 22.3547 8.41246 22.1547 8.21242C21.9547 8.01238 21.6834 7.9 21.4005 7.9ZM15.0005 27.1C14.7176 27.1 14.4462 27.2124 14.2462 27.4124C14.0462 27.6125 13.9338 27.8838 13.9338 28.1667V32.4333C13.9338 32.7162 14.0462 32.9875 14.2462 33.1876C14.4462 33.3876 14.7176 33.5 15.0005 33.5C15.2834 33.5 15.5547 33.3876 15.7547 33.1876C15.9547 32.9875 16.0671 32.7162 16.0671 32.4333V28.1667C16.0671 27.8838 15.9547 27.6125 15.7547 27.4124C15.5547 27.2124 15.2834 27.1 15.0005 27.1ZM15.0005 11.1C14.7176 11.1 14.4462 11.2124 14.2462 11.4124C14.0462 11.6125 13.9338 11.8838 13.9338 12.1667V22.8333C13.9338 23.1162 14.0462 23.3875 14.2462 23.5876C14.4462 23.7876 14.7176 23.9 15.0005 23.9C15.2834 23.9 15.5547 23.7876 15.7547 23.5876C15.9547 23.3875 16.0671 23.1162 16.0671 22.8333V12.1667C16.0671 11.8838 15.9547 11.6125 15.7547 11.4124C15.5547 11.2124 15.2834 11.1 15.0005 11.1ZM8.60045 7.9C8.31756 7.9 8.04625 8.01238 7.84621 8.21242C7.64617 8.41246 7.53379 8.68377 7.53379 8.96667V16.4333C7.53379 16.7162 7.64617 16.9875 7.84621 17.1876C8.04625 17.3876 8.31756 17.5 8.60045 17.5C8.88335 17.5 9.15466 17.3876 9.3547 17.1876C9.55474 16.9875 9.66712 16.7162 9.66712 16.4333V8.96667C9.66712 8.68377 9.55474 8.41246 9.3547 8.21242C9.15466 8.01238 8.88335 7.9 8.60045 7.9ZM21.4005 17.5C21.1176 17.5 20.8462 17.6124 20.6462 17.8124C20.4462 18.0125 20.3338 18.2838 20.3338 18.5667V26.0333C20.3338 26.3162 20.4462 26.5875 20.6462 26.7876C20.8462 26.9876 21.1176 27.1 21.4005 27.1C21.6834 27.1 21.9547 26.9876 22.1547 26.7876C22.3547 26.5875 22.4671 26.3162 22.4671 26.0333V18.5667C22.4671 18.2838 22.3547 18.0125 22.1547 17.8124C21.9547 17.6124 21.6834 17.5 21.4005 17.5ZM2.20046 14.3C1.91756 14.3 1.64625 14.4124 1.44621 14.6124C1.24617 14.8125 1.13379 15.0838 1.13379 15.3667V19.6333C1.13379 19.9162 1.24617 20.1875 1.44621 20.3876C1.64625 20.5876 1.91756 20.7 2.20046 20.7C2.48335 20.7 2.75466 20.5876 2.9547 20.3876C3.15474 20.1875 3.26712 19.9162 3.26712 19.6333V15.3667C3.26712 15.0838 3.15474 14.8125 2.9547 14.6124C2.75466 14.4124 2.48335 14.3 2.20046 14.3ZM8.60045 20.7C8.31756 20.7 8.04625 20.8124 7.84621 21.0124C7.64617 21.2125 7.53379 21.4838 7.53379 21.7667V26.0333C7.53379 26.3162 7.64617 26.5875 7.84621 26.7876C8.04625 26.9876 8.31756 27.1 8.60045 27.1C8.88335 27.1 9.15466 26.9876 9.3547 26.7876C9.55474 26.5875 9.66712 26.3162 9.66712 26.0333V21.7667C9.66712 21.4838 9.55474 21.2125 9.3547 21.0124C9.15466 20.8124 8.88335 20.7 8.60045 20.7ZM27.8005 14.3C27.5176 14.3 27.2462 14.4124 27.0462 14.6124C26.8462 14.8125 26.7338 15.0838 26.7338 15.3667V19.6333C26.7338 19.9162 26.8462 20.1875 27.0462 20.3876C27.2462 20.5876 27.5176 20.7 27.8005 20.7C28.0834 20.7 28.3547 20.5876 28.5547 20.3876C28.7547 20.1875 28.8671 19.9162 28.8671 19.6333V15.3667C28.8671 15.0838 28.7547 14.8125 28.5547 14.6124C28.3547 14.4124 28.0834 14.3 27.8005 14.3Z"/>
</svg>
